<svg width="18" height="18" viewBox="0 0 18 18" fill="none" xmlns="http://www.w3.org/2000/svg">
<path d="M15.8362 1.8438L7.43625 3.74229C7.2975 3.77279 7.2 3.89859 7.2 4.03964V5.88476L16.2 3.85284V2.14115C16.2 1.94673 16.0238 1.80187 15.8362 1.8438ZM16.2 9.87234V5.72464L7.2 7.75656V14.9502C7.2 16.6352 5.5875 18 3.6 18C1.6125 18 0 16.6352 0 14.9502C0 13.2652 1.6125 11.9004 3.6 11.9004C4.25625 11.9004 4.87125 12.0491 5.4 12.3084V4.03583C5.4 3.03703 6.0825 2.16784 7.04625 1.95054L15.4462 0.0520561C16.7587 -0.245297 18 0.768754 18 2.13734V12.5142C18 14.1992 16.3875 15.564 14.4 15.564C12.4125 15.564 10.8 14.1992 10.8 12.5142C10.8 10.8292 12.4125 9.46443 14.4 9.46443C15.0562 9.46443 15.6713 9.61311 16.2 9.87234ZM16.2 12.5142C16.2 11.8394 15.3938 11.2943 14.4 11.2943C13.4062 11.2943 12.6 11.8394 12.6 12.5142C12.6 13.189 13.4062 13.7341 14.4 13.7341C15.3938 13.7341 16.2 13.189 16.2 12.5142ZM5.4 14.954C5.4 14.2793 4.59375 13.7341 3.6 13.7341C2.60625 13.7341 1.8 14.2793 1.8 14.954C1.8 15.6288 2.60625 16.1739 3.6 16.1739C4.59375 16.1739 5.4 15.6288 5.4 14.954Z" fill="#5A189A"/>
</svg>
