<svg width="32" height="28" viewBox="0 0 32 28" fill="none" xmlns="http://www.w3.org/2000/svg">
<path d="M0 24V5.5C0 4.66875 0.66875 4 1.5 4C2.33125 4 3 4.66875 3 5.5V23.5C3 24.3312 3.66875 25 4.5 25C5.33125 25 6 24.3312 6 23.5V4C6 1.79375 7.79375 0 10 0H28C30.2062 0 32 1.79375 32 4V24C32 26.2062 30.2062 28 28 28H4C1.79375 28 0 26.2062 0 24ZM10 6V10C10 11.1062 10.8938 12 12 12H16C17.1063 12 18 11.1062 18 10V6C18 4.89375 17.1063 4 16 4H12C10.8938 4 10 4.89375 10 6ZM11.5 21C10.6687 21 10 21.6688 10 22.5C10 23.3312 10.6687 24 11.5 24H26.5C27.3312 24 28 23.3312 28 22.5C28 21.6688 27.3312 21 26.5 21H11.5ZM10 16.5C10 17.3312 10.6687 18 11.5 18H26.5C27.3312 18 28 17.3312 28 16.5C28 15.6687 27.3312 15 26.5 15H11.5C10.6687 15 10 15.6687 10 16.5ZM22.5 9C21.6688 9 21 9.66875 21 10.5C21 11.3313 21.6688 12 22.5 12H26.5C27.3312 12 28 11.3313 28 10.5C28 9.66875 27.3312 9 26.5 9H22.5Z" fill="white"/>
</svg>
