<svg width="16" height="15" viewBox="0 0 16 15" fill="none" xmlns="http://www.w3.org/2000/svg">
<path d="M2.58065 4.65517C3.15161 4.65517 3.6129 5.11746 3.6129 5.68965V13.9655C3.6129 14.5377 3.15161 15 2.58065 15H1.03226C0.46129 15 0 14.5377 0 13.9655V5.68965C0 5.11746 0.46129 4.65517 1.03226 4.65517H2.58065ZM8.72903 0C9.60968 0 10.3226 0.714439 10.3226 1.59698V1.73276C10.3226 1.95259 10.2806 2.17241 10.2 2.37608L9.29032 4.65517H14.4516C15.3065 4.65517 16 5.35022 16 6.2069C16 6.84375 15.6161 7.39009 15.0677 7.62931C15.6161 7.86853 16 8.41487 16 9.05172C16 9.80819 15.4581 10.4386 14.7419 10.5744C14.8839 10.8103 14.9677 11.0851 14.9677 11.3793C14.9677 12.097 14.4839 12.6983 13.8258 12.8761C13.8968 13.0539 13.9355 13.2478 13.9355 13.4483C13.9355 14.305 13.2419 15 12.3871 15H9.55161C8.38064 15 7.24194 14.5991 6.32903 13.8653L5.93548 13.5517C5.44516 13.1606 5.16129 12.5657 5.16129 11.9353V5.90302C5.16129 5.42134 5.27419 4.94612 5.4871 4.51616L7.3 0.882543C7.57097 0.342672 8.12258 0 8.72903 0Z" fill="#5A189A"/>
</svg>
